<mxfile host="app.diagrams.net" agent="Mozilla/5.0 (Windows NT 10.0; Win64; x64) AppleWebKit/537.36 (KHTML, like Gecko) Chrome/127.0.0.0 Safari/537.36" version="24.7.6">
  <diagram name="Page-1" id="lKgWDQTDh7r5Y66qL9Vk">
    <mxGraphModel dx="3217" dy="1290" grid="1" gridSize="10" guides="1" tooltips="1" connect="1" arrows="1" fold="1" page="1" pageScale="1" pageWidth="850" pageHeight="1100" math="0" shadow="0">
      <root>
        <mxCell id="0" />
        <mxCell id="1" parent="0" />
        <mxCell id="B8-8oyJUdt9m-G_RZTFj-40" value="&lt;font style=&quot;font-size: 12px;&quot;&gt;Kali&lt;/font&gt;" style="whiteSpace=wrap;html=1;aspect=fixed;fillColor=#dae8fc;strokeColor=#6c8ebf;" vertex="1" parent="1">
          <mxGeometry x="80" y="280" width="80" height="80" as="geometry" />
        </mxCell>
        <mxCell id="B8-8oyJUdt9m-G_RZTFj-41" value="" style="endArrow=none;html=1;rounded=0;fontSize=12;startSize=8;endSize=8;curved=1;entryX=0;entryY=0.5;entryDx=0;entryDy=0;" edge="1" parent="1" target="B8-8oyJUdt9m-G_RZTFj-46">
          <mxGeometry width="50" height="50" relative="1" as="geometry">
            <mxPoint x="160" y="320" as="sourcePoint" />
            <mxPoint x="280" y="320" as="targetPoint" />
          </mxGeometry>
        </mxCell>
        <mxCell id="B8-8oyJUdt9m-G_RZTFj-42" value="&lt;font style=&quot;font-size: 12px;&quot;&gt;13.106.175.14&lt;/font&gt;" style="text;html=1;align=center;verticalAlign=middle;whiteSpace=wrap;rounded=0;fontSize=16;" vertex="1" parent="1">
          <mxGeometry x="90" y="356" width="60" height="30" as="geometry" />
        </mxCell>
        <mxCell id="B8-8oyJUdt9m-G_RZTFj-45" value="&lt;p style=&quot;line-height: 120%;&quot;&gt;&lt;font style=&quot;font-size: 6px;&quot;&gt;eth0&lt;/font&gt;&lt;/p&gt;" style="text;html=1;align=center;verticalAlign=middle;whiteSpace=wrap;rounded=0;fontSize=16;" vertex="1" parent="1">
          <mxGeometry x="140" y="313" width="60" height="30" as="geometry" />
        </mxCell>
        <mxCell id="B8-8oyJUdt9m-G_RZTFj-51" value="" style="endArrow=none;html=1;rounded=0;fontSize=12;startSize=8;endSize=8;curved=1;entryX=0;entryY=0.5;entryDx=0;entryDy=0;exitX=1;exitY=0.5;exitDx=0;exitDy=0;" edge="1" parent="1" source="B8-8oyJUdt9m-G_RZTFj-46" target="B8-8oyJUdt9m-G_RZTFj-52">
          <mxGeometry width="50" height="50" relative="1" as="geometry">
            <mxPoint x="600" y="319.5" as="sourcePoint" />
            <mxPoint x="960" y="319.5" as="targetPoint" />
          </mxGeometry>
        </mxCell>
        <mxCell id="B8-8oyJUdt9m-G_RZTFj-52" value="&lt;font style=&quot;font-size: 12px;&quot;&gt;Red GW&lt;/font&gt;" style="whiteSpace=wrap;html=1;aspect=fixed;fillColor=#f8cecc;strokeColor=#b85450;" vertex="1" parent="1">
          <mxGeometry x="520" y="280" width="80" height="80" as="geometry" />
        </mxCell>
        <mxCell id="B8-8oyJUdt9m-G_RZTFj-57" value="" style="group" vertex="1" connectable="0" parent="1">
          <mxGeometry x="220" y="280" width="201" height="80" as="geometry" />
        </mxCell>
        <mxCell id="B8-8oyJUdt9m-G_RZTFj-46" value="Gray Router" style="whiteSpace=wrap;html=1;aspect=fixed;fillColor=#f5f5f5;fontColor=#333333;strokeColor=#666666;" vertex="1" parent="B8-8oyJUdt9m-G_RZTFj-57">
          <mxGeometry x="60" width="80" height="80" as="geometry" />
        </mxCell>
        <mxCell id="B8-8oyJUdt9m-G_RZTFj-48" value="&lt;p style=&quot;line-height: 120%;&quot;&gt;&lt;font style=&quot;font-size: 6px;&quot;&gt;eth0: 13.106.175.13&lt;/font&gt;&lt;/p&gt;" style="text;html=1;align=center;verticalAlign=middle;whiteSpace=wrap;rounded=0;fontSize=16;" vertex="1" parent="B8-8oyJUdt9m-G_RZTFj-57">
          <mxGeometry y="33" width="60" height="30" as="geometry" />
        </mxCell>
        <mxCell id="B8-8oyJUdt9m-G_RZTFj-49" value="&lt;p style=&quot;line-height: 120%;&quot;&gt;&lt;font style=&quot;font-size: 6px;&quot;&gt;13.106.175.12/30&lt;/font&gt;&lt;/p&gt;" style="text;html=1;align=center;verticalAlign=middle;whiteSpace=wrap;rounded=0;fontSize=16;" vertex="1" parent="B8-8oyJUdt9m-G_RZTFj-57">
          <mxGeometry x="3" y="16" width="60" height="30" as="geometry" />
        </mxCell>
        <mxCell id="B8-8oyJUdt9m-G_RZTFj-54" value="&lt;p style=&quot;line-height: 120%;&quot;&gt;&lt;font style=&quot;font-size: 6px;&quot;&gt;eth1: 101.96.128.33&lt;/font&gt;&lt;/p&gt;" style="text;html=1;align=center;verticalAlign=middle;whiteSpace=wrap;rounded=0;fontSize=16;" vertex="1" parent="B8-8oyJUdt9m-G_RZTFj-57">
          <mxGeometry x="141" y="32" width="60" height="30" as="geometry" />
        </mxCell>
        <mxCell id="B8-8oyJUdt9m-G_RZTFj-56" value="&lt;p style=&quot;line-height: 120%;&quot;&gt;&lt;font style=&quot;font-size: 6px;&quot;&gt;101.96.128.32/30&lt;/font&gt;&lt;/p&gt;" style="text;html=1;align=center;verticalAlign=middle;whiteSpace=wrap;rounded=0;fontSize=16;" vertex="1" parent="B8-8oyJUdt9m-G_RZTFj-57">
          <mxGeometry x="137" y="16" width="60" height="30" as="geometry" />
        </mxCell>
        <mxCell id="B8-8oyJUdt9m-G_RZTFj-58" value="&lt;p style=&quot;line-height: 120%;&quot;&gt;&lt;span style=&quot;font-size: 6px;&quot;&gt;eth0: 101.96.128.34&lt;/span&gt;&lt;br&gt;&lt;/p&gt;" style="text;html=1;align=center;verticalAlign=middle;whiteSpace=wrap;rounded=0;fontSize=16;" vertex="1" parent="1">
          <mxGeometry x="460" y="313" width="60" height="30" as="geometry" />
        </mxCell>
        <mxCell id="B8-8oyJUdt9m-G_RZTFj-53" value="" style="ellipse;shape=cloud;whiteSpace=wrap;html=1;" vertex="1" parent="1">
          <mxGeometry x="200" y="229" width="240" height="160" as="geometry" />
        </mxCell>
        <mxCell id="B8-8oyJUdt9m-G_RZTFj-59" value="" style="endArrow=none;html=1;rounded=0;fontSize=12;startSize=8;endSize=8;curved=1;" edge="1" parent="1">
          <mxGeometry width="50" height="50" relative="1" as="geometry">
            <mxPoint x="560" y="440" as="sourcePoint" />
            <mxPoint x="560" y="360" as="targetPoint" />
          </mxGeometry>
        </mxCell>
        <mxCell id="B8-8oyJUdt9m-G_RZTFj-60" value="" style="endArrow=none;html=1;rounded=0;fontSize=12;startSize=8;endSize=8;curved=1;strokeWidth=5;" edge="1" parent="1">
          <mxGeometry width="50" height="50" relative="1" as="geometry">
            <mxPoint x="680" y="440" as="sourcePoint" />
            <mxPoint x="440" y="440" as="targetPoint" />
          </mxGeometry>
        </mxCell>
        <mxCell id="B8-8oyJUdt9m-G_RZTFj-61" value="&lt;p style=&quot;line-height: 120%;&quot;&gt;&lt;font style=&quot;font-size: 6px;&quot;&gt;192.168.2.0/24&lt;/font&gt;&lt;/p&gt;" style="text;html=1;align=center;verticalAlign=middle;whiteSpace=wrap;rounded=0;fontSize=16;" vertex="1" parent="1">
          <mxGeometry x="431" y="413" width="60" height="30" as="geometry" />
        </mxCell>
        <mxCell id="B8-8oyJUdt9m-G_RZTFj-62" value="" style="endArrow=none;html=1;rounded=0;fontSize=12;startSize=8;endSize=8;curved=1;" edge="1" parent="1">
          <mxGeometry width="50" height="50" relative="1" as="geometry">
            <mxPoint x="480" y="520" as="sourcePoint" />
            <mxPoint x="480" y="440" as="targetPoint" />
          </mxGeometry>
        </mxCell>
        <mxCell id="B8-8oyJUdt9m-G_RZTFj-63" value="" style="endArrow=none;html=1;rounded=0;fontSize=12;startSize=8;endSize=8;curved=1;" edge="1" parent="1">
          <mxGeometry width="50" height="50" relative="1" as="geometry">
            <mxPoint x="640" y="520" as="sourcePoint" />
            <mxPoint x="640" y="440" as="targetPoint" />
          </mxGeometry>
        </mxCell>
        <mxCell id="B8-8oyJUdt9m-G_RZTFj-64" value="Red Win 10" style="ellipse;whiteSpace=wrap;html=1;aspect=fixed;fillColor=#f8cecc;strokeColor=#b85450;" vertex="1" parent="1">
          <mxGeometry x="600" y="520" width="80" height="80" as="geometry" />
        </mxCell>
        <mxCell id="B8-8oyJUdt9m-G_RZTFj-65" value="&lt;font style=&quot;font-size: 12px;&quot;&gt;Red DMZ&lt;/font&gt;" style="whiteSpace=wrap;html=1;aspect=fixed;fillColor=#f8cecc;strokeColor=#b85450;" vertex="1" parent="1">
          <mxGeometry x="440" y="520" width="80" height="80" as="geometry" />
        </mxCell>
        <mxCell id="B8-8oyJUdt9m-G_RZTFj-66" value="" style="endArrow=none;html=1;rounded=0;fontSize=12;startSize=8;endSize=8;curved=1;" edge="1" parent="1">
          <mxGeometry width="50" height="50" relative="1" as="geometry">
            <mxPoint x="479.58" y="680" as="sourcePoint" />
            <mxPoint x="479.58" y="600" as="targetPoint" />
          </mxGeometry>
        </mxCell>
        <mxCell id="B8-8oyJUdt9m-G_RZTFj-67" value="" style="endArrow=none;html=1;rounded=0;fontSize=12;startSize=8;endSize=8;curved=1;strokeWidth=5;" edge="1" parent="1">
          <mxGeometry width="50" height="50" relative="1" as="geometry">
            <mxPoint x="600" y="680" as="sourcePoint" />
            <mxPoint x="200" y="680" as="targetPoint" />
          </mxGeometry>
        </mxCell>
        <mxCell id="B8-8oyJUdt9m-G_RZTFj-68" value="&lt;p style=&quot;line-height: 120%;&quot;&gt;&lt;font style=&quot;font-size: 6px;&quot;&gt;10.0.8.0/24&lt;/font&gt;&lt;/p&gt;" style="text;html=1;align=center;verticalAlign=middle;whiteSpace=wrap;rounded=0;fontSize=16;" vertex="1" parent="1">
          <mxGeometry x="185" y="652" width="60" height="30" as="geometry" />
        </mxCell>
        <mxCell id="B8-8oyJUdt9m-G_RZTFj-69" value="" style="endArrow=none;html=1;rounded=0;fontSize=12;startSize=8;endSize=8;curved=1;" edge="1" parent="1">
          <mxGeometry width="50" height="50" relative="1" as="geometry">
            <mxPoint x="559.76" y="760" as="sourcePoint" />
            <mxPoint x="559.76" y="680" as="targetPoint" />
          </mxGeometry>
        </mxCell>
        <mxCell id="B8-8oyJUdt9m-G_RZTFj-70" value="" style="endArrow=none;html=1;rounded=0;fontSize=12;startSize=8;endSize=8;curved=1;" edge="1" parent="1">
          <mxGeometry width="50" height="50" relative="1" as="geometry">
            <mxPoint x="400" y="760" as="sourcePoint" />
            <mxPoint x="400" y="680" as="targetPoint" />
          </mxGeometry>
        </mxCell>
        <mxCell id="B8-8oyJUdt9m-G_RZTFj-71" value="" style="endArrow=none;html=1;rounded=0;fontSize=12;startSize=8;endSize=8;curved=1;" edge="1" parent="1">
          <mxGeometry width="50" height="50" relative="1" as="geometry">
            <mxPoint x="240" y="760" as="sourcePoint" />
            <mxPoint x="240" y="680" as="targetPoint" />
          </mxGeometry>
        </mxCell>
        <mxCell id="B8-8oyJUdt9m-G_RZTFj-72" value="&lt;font style=&quot;font-size: 12px;&quot;&gt;Red Internal&lt;/font&gt;" style="whiteSpace=wrap;html=1;aspect=fixed;fillColor=#f8cecc;strokeColor=#b85450;" vertex="1" parent="1">
          <mxGeometry x="200" y="760" width="80" height="80" as="geometry" />
        </mxCell>
        <mxCell id="B8-8oyJUdt9m-G_RZTFj-76" value="" style="group" vertex="1" connectable="0" parent="1">
          <mxGeometry x="360" y="760" width="80" height="80" as="geometry" />
        </mxCell>
        <mxCell id="B8-8oyJUdt9m-G_RZTFj-73" value="" style="triangle;whiteSpace=wrap;html=1;rotation=-90;fillColor=#f8cecc;strokeColor=#b85450;" vertex="1" parent="B8-8oyJUdt9m-G_RZTFj-76">
          <mxGeometry width="80" height="80" as="geometry" />
        </mxCell>
        <mxCell id="B8-8oyJUdt9m-G_RZTFj-74" value="WS" style="text;html=1;align=center;verticalAlign=middle;whiteSpace=wrap;rounded=0;fontSize=16;" vertex="1" parent="B8-8oyJUdt9m-G_RZTFj-76">
          <mxGeometry x="10" y="25" width="60" height="30" as="geometry" />
        </mxCell>
        <mxCell id="B8-8oyJUdt9m-G_RZTFj-77" value="" style="group" vertex="1" connectable="0" parent="1">
          <mxGeometry x="520" y="760" width="80" height="80" as="geometry" />
        </mxCell>
        <mxCell id="B8-8oyJUdt9m-G_RZTFj-78" value="" style="triangle;whiteSpace=wrap;html=1;rotation=-90;fillColor=#f8cecc;strokeColor=#b85450;" vertex="1" parent="B8-8oyJUdt9m-G_RZTFj-77">
          <mxGeometry width="80" height="80" as="geometry" />
        </mxCell>
        <mxCell id="B8-8oyJUdt9m-G_RZTFj-79" value="MX" style="text;html=1;align=center;verticalAlign=middle;whiteSpace=wrap;rounded=0;fontSize=16;" vertex="1" parent="B8-8oyJUdt9m-G_RZTFj-77">
          <mxGeometry x="10" y="25" width="60" height="30" as="geometry" />
        </mxCell>
        <mxCell id="B8-8oyJUdt9m-G_RZTFj-80" value="&lt;p style=&quot;line-height: 120%;&quot;&gt;&lt;span style=&quot;font-size: 6px;&quot;&gt;eth1: .1&lt;/span&gt;&lt;br&gt;&lt;/p&gt;" style="text;html=1;align=center;verticalAlign=middle;whiteSpace=wrap;rounded=0;fontSize=16;" vertex="1" parent="1">
          <mxGeometry x="545" y="350" width="60" height="30" as="geometry" />
        </mxCell>
        <mxCell id="B8-8oyJUdt9m-G_RZTFj-81" value="&lt;p style=&quot;line-height: 120%;&quot;&gt;&lt;span style=&quot;font-size: 6px;&quot;&gt;eth0: .101&lt;/span&gt;&lt;br&gt;&lt;/p&gt;" style="text;html=1;align=center;verticalAlign=middle;whiteSpace=wrap;rounded=0;fontSize=16;" vertex="1" parent="1">
          <mxGeometry x="469" y="495" width="60" height="30" as="geometry" />
        </mxCell>
        <mxCell id="B8-8oyJUdt9m-G_RZTFj-82" value="&lt;p style=&quot;line-height: 120%;&quot;&gt;&lt;span style=&quot;font-size: 6px;&quot;&gt;eth0: .102&lt;/span&gt;&lt;br&gt;&lt;/p&gt;" style="text;html=1;align=center;verticalAlign=middle;whiteSpace=wrap;rounded=0;fontSize=16;" vertex="1" parent="1">
          <mxGeometry x="630" y="495" width="60" height="30" as="geometry" />
        </mxCell>
        <mxCell id="B8-8oyJUdt9m-G_RZTFj-83" value="&lt;p style=&quot;line-height: 120%;&quot;&gt;&lt;span style=&quot;font-size: 6px;&quot;&gt;eth1: .1&lt;/span&gt;&lt;br&gt;&lt;/p&gt;" style="text;html=1;align=center;verticalAlign=middle;whiteSpace=wrap;rounded=0;fontSize=16;" vertex="1" parent="1">
          <mxGeometry x="466" y="592" width="60" height="30" as="geometry" />
        </mxCell>
        <mxCell id="B8-8oyJUdt9m-G_RZTFj-84" value="&lt;p style=&quot;line-height: 120%;&quot;&gt;&lt;span style=&quot;font-size: 6px;&quot;&gt;eth1: .73&lt;/span&gt;&lt;br&gt;&lt;/p&gt;" style="text;html=1;align=center;verticalAlign=middle;whiteSpace=wrap;rounded=0;fontSize=16;" vertex="1" parent="1">
          <mxGeometry x="230" y="734" width="60" height="30" as="geometry" />
        </mxCell>
        <mxCell id="B8-8oyJUdt9m-G_RZTFj-85" value="&lt;p style=&quot;line-height: 120%;&quot;&gt;&lt;span style=&quot;font-size: 6px;&quot;&gt;eth0: .201&lt;/span&gt;&lt;br&gt;&lt;/p&gt;" style="text;html=1;align=center;verticalAlign=middle;whiteSpace=wrap;rounded=0;fontSize=16;" vertex="1" parent="1">
          <mxGeometry x="390" y="734" width="60" height="30" as="geometry" />
        </mxCell>
        <mxCell id="B8-8oyJUdt9m-G_RZTFj-86" value="&lt;p style=&quot;line-height: 120%;&quot;&gt;&lt;span style=&quot;font-size: 6px;&quot;&gt;eth0: .202&lt;/span&gt;&lt;br&gt;&lt;/p&gt;" style="text;html=1;align=center;verticalAlign=middle;whiteSpace=wrap;rounded=0;fontSize=16;" vertex="1" parent="1">
          <mxGeometry x="548" y="734" width="60" height="30" as="geometry" />
        </mxCell>
        <mxCell id="B8-8oyJUdt9m-G_RZTFj-87" value="&lt;p style=&quot;line-height: 120%;&quot;&gt;&lt;span style=&quot;font-size: 6px;&quot;&gt;eth0: .73&lt;/span&gt;&lt;br&gt;&lt;/p&gt;" style="text;html=1;align=center;verticalAlign=middle;whiteSpace=wrap;rounded=0;fontSize=16;" vertex="1" parent="1">
          <mxGeometry x="228" y="834" width="60" height="30" as="geometry" />
        </mxCell>
        <mxCell id="B8-8oyJUdt9m-G_RZTFj-88" value="" style="endArrow=none;html=1;rounded=0;fontSize=12;startSize=8;endSize=8;curved=1;entryX=0.5;entryY=1;entryDx=0;entryDy=0;" edge="1" parent="1" target="B8-8oyJUdt9m-G_RZTFj-72">
          <mxGeometry width="50" height="50" relative="1" as="geometry">
            <mxPoint x="240" y="920" as="sourcePoint" />
            <mxPoint x="229.43" y="870" as="targetPoint" />
          </mxGeometry>
        </mxCell>
        <mxCell id="B8-8oyJUdt9m-G_RZTFj-89" value="" style="endArrow=none;html=1;rounded=0;fontSize=12;startSize=8;endSize=8;curved=1;strokeWidth=5;" edge="1" parent="1">
          <mxGeometry width="50" height="50" relative="1" as="geometry">
            <mxPoint x="680" y="920" as="sourcePoint" />
            <mxPoint x="120" y="920" as="targetPoint" />
          </mxGeometry>
        </mxCell>
        <mxCell id="B8-8oyJUdt9m-G_RZTFj-90" value="&lt;p style=&quot;line-height: 120%;&quot;&gt;&lt;font style=&quot;font-size: 6px;&quot;&gt;172.17.27.0/24&lt;/font&gt;&lt;/p&gt;" style="text;html=1;align=center;verticalAlign=middle;whiteSpace=wrap;rounded=0;fontSize=16;" vertex="1" parent="1">
          <mxGeometry x="110" y="890" width="60" height="30" as="geometry" />
        </mxCell>
        <mxCell id="B8-8oyJUdt9m-G_RZTFj-91" value="" style="endArrow=none;html=1;rounded=0;fontSize=12;startSize=8;endSize=8;curved=1;entryX=0.5;entryY=1;entryDx=0;entryDy=0;" edge="1" parent="1">
          <mxGeometry width="50" height="50" relative="1" as="geometry">
            <mxPoint x="160" y="1000" as="sourcePoint" />
            <mxPoint x="160" y="920" as="targetPoint" />
          </mxGeometry>
        </mxCell>
        <mxCell id="B8-8oyJUdt9m-G_RZTFj-92" value="" style="endArrow=none;html=1;rounded=0;fontSize=12;startSize=8;endSize=8;curved=1;entryX=0.5;entryY=1;entryDx=0;entryDy=0;" edge="1" parent="1">
          <mxGeometry width="50" height="50" relative="1" as="geometry">
            <mxPoint x="319.71" y="1000" as="sourcePoint" />
            <mxPoint x="319.71" y="920" as="targetPoint" />
          </mxGeometry>
        </mxCell>
        <mxCell id="B8-8oyJUdt9m-G_RZTFj-93" value="" style="endArrow=none;html=1;rounded=0;fontSize=12;startSize=8;endSize=8;curved=1;entryX=0.5;entryY=1;entryDx=0;entryDy=0;" edge="1" parent="1">
          <mxGeometry width="50" height="50" relative="1" as="geometry">
            <mxPoint x="479.40999999999997" y="1000" as="sourcePoint" />
            <mxPoint x="479.40999999999997" y="920" as="targetPoint" />
          </mxGeometry>
        </mxCell>
        <mxCell id="B8-8oyJUdt9m-G_RZTFj-94" value="" style="endArrow=none;html=1;rounded=0;fontSize=12;startSize=8;endSize=8;curved=1;entryX=0.5;entryY=1;entryDx=0;entryDy=0;" edge="1" parent="1">
          <mxGeometry width="50" height="50" relative="1" as="geometry">
            <mxPoint x="639.4100000000001" y="1000" as="sourcePoint" />
            <mxPoint x="639.4100000000001" y="920" as="targetPoint" />
          </mxGeometry>
        </mxCell>
        <mxCell id="B8-8oyJUdt9m-G_RZTFj-95" value="Red Win 7" style="ellipse;whiteSpace=wrap;html=1;aspect=fixed;fillColor=#f8cecc;strokeColor=#b85450;" vertex="1" parent="1">
          <mxGeometry x="120" y="1000" width="80" height="80" as="geometry" />
        </mxCell>
        <mxCell id="B8-8oyJUdt9m-G_RZTFj-96" value="Red Ubuntu" style="ellipse;whiteSpace=wrap;html=1;aspect=fixed;fillColor=#f8cecc;strokeColor=#b85450;" vertex="1" parent="1">
          <mxGeometry x="280.5" y="1000" width="80" height="80" as="geometry" />
        </mxCell>
        <mxCell id="B8-8oyJUdt9m-G_RZTFj-97" value="Red Debian" style="ellipse;whiteSpace=wrap;html=1;aspect=fixed;fillColor=#f8cecc;strokeColor=#b85450;" vertex="1" parent="1">
          <mxGeometry x="440" y="1000" width="80" height="80" as="geometry" />
        </mxCell>
        <mxCell id="B8-8oyJUdt9m-G_RZTFj-98" value="Red Win 11" style="ellipse;whiteSpace=wrap;html=1;aspect=fixed;fillColor=#f8cecc;strokeColor=#b85450;" vertex="1" parent="1">
          <mxGeometry x="600" y="1000" width="80" height="80" as="geometry" />
        </mxCell>
        <mxCell id="B8-8oyJUdt9m-G_RZTFj-99" value="&lt;p style=&quot;line-height: 120%;&quot;&gt;&lt;span style=&quot;font-size: 6px;&quot;&gt;eth0: .72&lt;/span&gt;&lt;br&gt;&lt;/p&gt;" style="text;html=1;align=center;verticalAlign=middle;whiteSpace=wrap;rounded=0;fontSize=16;" vertex="1" parent="1">
          <mxGeometry x="148" y="974" width="60" height="30" as="geometry" />
        </mxCell>
        <mxCell id="B8-8oyJUdt9m-G_RZTFj-100" value="&lt;p style=&quot;line-height: 120%;&quot;&gt;&lt;span style=&quot;font-size: 6px;&quot;&gt;eth1: .75&lt;/span&gt;&lt;br&gt;&lt;/p&gt;" style="text;html=1;align=center;verticalAlign=middle;whiteSpace=wrap;rounded=0;fontSize=16;" vertex="1" parent="1">
          <mxGeometry x="310" y="974" width="60" height="30" as="geometry" />
        </mxCell>
        <mxCell id="B8-8oyJUdt9m-G_RZTFj-101" value="&lt;p style=&quot;line-height: 120%;&quot;&gt;&lt;span style=&quot;font-size: 6px;&quot;&gt;eth0: .76&lt;/span&gt;&lt;br&gt;&lt;/p&gt;" style="text;html=1;align=center;verticalAlign=middle;whiteSpace=wrap;rounded=0;fontSize=16;" vertex="1" parent="1">
          <mxGeometry x="469" y="974" width="60" height="30" as="geometry" />
        </mxCell>
        <mxCell id="B8-8oyJUdt9m-G_RZTFj-102" value="&lt;p style=&quot;line-height: 120%;&quot;&gt;&lt;span style=&quot;font-size: 6px;&quot;&gt;eth0: .254&lt;/span&gt;&lt;br&gt;&lt;/p&gt;" style="text;html=1;align=center;verticalAlign=middle;whiteSpace=wrap;rounded=0;fontSize=16;" vertex="1" parent="1">
          <mxGeometry x="630" y="974" width="60" height="30" as="geometry" />
        </mxCell>
        <mxCell id="B8-8oyJUdt9m-G_RZTFj-103" value="" style="endArrow=none;dashed=1;html=1;dashPattern=1 3;strokeWidth=2;rounded=0;fontSize=12;startSize=8;endSize=8;curved=1;" edge="1" parent="1">
          <mxGeometry width="50" height="50" relative="1" as="geometry">
            <mxPoint y="1160" as="sourcePoint" />
            <mxPoint y="160" as="targetPoint" />
          </mxGeometry>
        </mxCell>
        <mxCell id="B8-8oyJUdt9m-G_RZTFj-104" value="" style="endArrow=none;dashed=1;html=1;dashPattern=1 3;strokeWidth=2;rounded=0;fontSize=12;startSize=8;endSize=8;curved=1;" edge="1" parent="1">
          <mxGeometry width="50" height="50" relative="1" as="geometry">
            <mxPoint x="760" y="1160" as="sourcePoint" />
            <mxPoint x="760" y="160" as="targetPoint" />
          </mxGeometry>
        </mxCell>
        <mxCell id="B8-8oyJUdt9m-G_RZTFj-105" value="" style="endArrow=none;dashed=1;html=1;dashPattern=1 3;strokeWidth=2;rounded=0;fontSize=12;startSize=8;endSize=8;curved=1;" edge="1" parent="1">
          <mxGeometry width="50" height="50" relative="1" as="geometry">
            <mxPoint x="760" y="1160" as="sourcePoint" />
            <mxPoint y="1160" as="targetPoint" />
          </mxGeometry>
        </mxCell>
        <mxCell id="B8-8oyJUdt9m-G_RZTFj-106" value="" style="endArrow=none;dashed=1;html=1;dashPattern=1 3;strokeWidth=2;rounded=0;fontSize=12;startSize=8;endSize=8;curved=1;" edge="1" parent="1">
          <mxGeometry width="50" height="50" relative="1" as="geometry">
            <mxPoint x="760" y="160" as="sourcePoint" />
            <mxPoint y="160" as="targetPoint" />
          </mxGeometry>
        </mxCell>
      </root>
    </mxGraphModel>
  </diagram>
</mxfile>
